<svg id="visual" viewBox="0 0 900 600" width="900" height="600" xmlns="http://www.w3.org/2000/svg" xmlns:xlink="http://www.w3.org/1999/xlink" version="1.1"><path d="M0 19L225 19L450 19L675 25L900 19L900 0L675 0L450 0L225 0L0 0Z" fill="#131629"></path><path d="M0 37L225 37L450 43L675 49L900 43L900 17L675 23L450 17L225 17L0 17Z" fill="#1a1f49"></path><path d="M0 151L225 151L450 199L675 145L900 181L900 41L675 47L450 41L225 35L0 35Z" fill="#262769"></path><path d="M0 235L225 241L450 259L675 217L900 271L900 179L675 143L450 197L225 149L0 149Z" fill="#3a2c8a"></path><path d="M0 259L225 283L450 289L675 253L900 307L900 269L675 215L450 257L225 239L0 233Z" fill="#572ca9"></path><path d="M0 283L225 319L450 307L675 289L900 331L900 305L675 251L450 287L225 281L0 257Z" fill="#642ab5"></path><path d="M0 331L225 361L450 343L675 319L900 379L900 329L675 287L450 305L225 317L0 281Z" fill="#642ab5"></path><path d="M0 457L225 463L450 463L675 451L900 463L900 377L675 317L450 341L225 359L0 329Z" fill="#572ca9"></path><path d="M0 487L225 499L450 505L675 499L900 511L900 461L675 449L450 461L225 461L0 455Z" fill="#3a2c8a"></path><path d="M0 541L225 547L450 559L675 559L900 547L900 509L675 497L450 503L225 497L0 485Z" fill="#262769"></path><path d="M0 565L225 577L450 577L675 577L900 577L900 545L675 557L450 557L225 545L0 539Z" fill="#1a1f49"></path><path d="M0 601L225 601L450 601L675 601L900 601L900 575L675 575L450 575L225 575L0 563Z" fill="#131629"></path></svg>